<svg xmlns="http://www.w3.org/2000/svg" width="103.726" height="80.487" viewBox="0 0 103.726 80.487">
  <path id="book" d="M94.887,9.085A55.12,55.12,0,0,0,78.545,6.75c-9.105,0-18.911,1.868-25.682,7-6.771-5.136-16.576-7-25.682-7S8.271,8.618,1.5,13.754V82.16a2.511,2.511,0,0,0,2.335,2.335c.467,0,.7-.233,1.167-.233a56.992,56.992,0,0,1,22.18-5.136c9.105,0,18.911,1.868,25.682,7,6.3-3.969,17.744-7,25.682-7,7.7,0,15.642,1.4,22.18,4.9a2.1,2.1,0,0,0,1.167.233,2.511,2.511,0,0,0,2.335-2.335V13.754A31.848,31.848,0,0,0,94.887,9.085Zm0,63.036a54.26,54.26,0,0,0-16.343-2.335c-7.938,0-19.378,3.035-25.682,7v-53.7c6.3-3.969,17.744-7,25.682-7a54.26,54.26,0,0,1,16.343,2.335Z" transform="translate(-1 -6.25)" fill="#181818" stroke="#181818" stroke-width="1"/>
</svg>
