<svg xmlns="http://www.w3.org/2000/svg" width="30.625" height="80" viewBox="0 0 30.625 80">
  <path id="info" d="M3.086,65.457H6.172V43.168H3.086A3.086,3.086,0,0,1,0,40.082V32.711a3.086,3.086,0,0,1,3.086-3.086H20.367a3.086,3.086,0,0,1,3.086,3.086V65.457h3.086a3.086,3.086,0,0,1,3.086,3.086v7.371A3.086,3.086,0,0,1,26.539,79H3.086A3.086,3.086,0,0,1,0,75.914V68.543A3.086,3.086,0,0,1,3.086,65.457ZM14.813,0A11.109,11.109,0,1,0,25.922,11.109,11.109,11.109,0,0,0,14.813,0Z" transform="translate(0.5 0.5)" fill="#181818" stroke="#181818" stroke-width="1"/>
</svg>
