<svg xmlns="http://www.w3.org/2000/svg" width="31.5" height="31.5" viewBox="0 0 31.5 31.5">
  <path id="linkedin-icon" d="M29.25,0H2.243A2.26,2.26,0,0,0,0,2.271V29.229A2.26,2.26,0,0,0,2.243,31.5H29.25a2.266,2.266,0,0,0,2.25-2.271V2.271A2.266,2.266,0,0,0,29.25,0ZM9.52,27H4.852V11.967H9.527V27ZM7.186,9.914A2.707,2.707,0,1,1,9.893,7.207,2.708,2.708,0,0,1,7.186,9.914ZM27.021,27H22.352V19.688c0-1.744-.035-3.987-2.426-3.987-2.433,0-2.805,1.9-2.805,3.86V27H12.452V11.967h4.479V14.02h.063a4.917,4.917,0,0,1,4.423-2.426c4.725,0,5.6,3.115,5.6,7.165Z" fill="#707070"/>
</svg>
