<svg xmlns="http://www.w3.org/2000/svg" width="109.75" height="88" viewBox="0 0 109.75 88">
  <path id="projects-diagram" d="M65.25,54.375H43.5a5.438,5.438,0,0,0-5.437,5.438v21.75A5.438,5.438,0,0,0,43.5,87H65.25a5.438,5.438,0,0,0,5.438-5.437V59.813A5.438,5.438,0,0,0,65.25,54.375ZM32.625,5.438A5.438,5.438,0,0,0,27.188,0H5.438A5.438,5.438,0,0,0,0,5.438v21.75a5.438,5.438,0,0,0,5.438,5.438H21.7L34.134,54.382A10.839,10.839,0,0,1,43.5,48.938h.048L32.625,29.823V21.75H70.688V10.875H32.625ZM103.313,0H81.563a5.438,5.438,0,0,0-5.437,5.438v21.75a5.438,5.438,0,0,0,5.438,5.438h21.75a5.438,5.438,0,0,0,5.438-5.437V5.438A5.438,5.438,0,0,0,103.313,0Z" transform="translate(0.5 0.5)" fill="#181818" stroke="#181818" stroke-width="1"/>
</svg>
