<svg xmlns="http://www.w3.org/2000/svg" width="153.313" height="223.061" viewBox="0 0 153.313 223.061">
  <path id="questionmark" d="M76.862,0C42.087,0,19.564,14.248,1.881,39.657A10.467,10.467,0,0,0,4.137,53.979L22.93,68.229a10.456,10.456,0,0,0,14.487-1.807C48.331,52.75,56.426,44.879,73.472,44.879c13.4,0,29.981,8.626,29.981,21.623,0,9.825-8.111,14.871-21.345,22.29-15.433,8.652-35.855,19.42-35.855,46.357v4.264a10.456,10.456,0,0,0,10.456,10.456H88.282a10.456,10.456,0,0,0,10.456-10.456V136.9c0-18.673,54.575-19.45,54.575-69.98C153.314,28.866,113.842,0,76.862,0ZM72.5,162.7a30.179,30.179,0,1,0,30.179,30.179A30.213,30.213,0,0,0,72.5,162.7Z" fill="#ebebeb"/>
</svg>
