<svg xmlns="http://www.w3.org/2000/svg" width="181.982" height="181.982" viewBox="0 0 181.982 181.982">
  <g id="circles" transform="translate(108.678) rotate(56)" opacity="0.8">
    <g id="Ellipse_2" data-name="Ellipse 2" transform="translate(0 0)" fill="none" stroke="#8065a8" stroke-width="1.8">
      <circle cx="65.544" cy="65.544" r="65.544" stroke="none"/>
      <circle cx="65.544" cy="65.544" r="64.644" fill="none"/>
    </g>
    <g id="Ellipse_5" data-name="Ellipse 5" transform="translate(3.913 3.913)" fill="none" stroke="#8065a8" stroke-width="1.8">
      <circle cx="61.631" cy="61.631" r="61.631" stroke="none"/>
      <circle cx="61.631" cy="61.631" r="60.731" fill="none"/>
    </g>
    <g id="Ellipse_3" data-name="Ellipse 3" transform="translate(7.826 7.826)" fill="none" stroke="#8065a8" stroke-width="1.8">
      <circle cx="57.718" cy="57.718" r="57.718" stroke="none"/>
      <circle cx="57.718" cy="57.718" r="56.818" fill="none"/>
    </g>
    <g id="Ellipse_4" data-name="Ellipse 4" transform="translate(10.761 10.761)" fill="none" stroke="#8065a8" stroke-width="1.8">
      <circle cx="54.294" cy="54.294" r="54.294" stroke="none"/>
      <circle cx="54.294" cy="54.294" r="53.394" fill="none"/>
    </g>
    <g id="Ellipse_6" data-name="Ellipse 6" transform="translate(14.674 14.674)" fill="none" stroke="#8065a8" stroke-width="1.8">
      <circle cx="50.87" cy="50.87" r="50.87" stroke="none"/>
      <circle cx="50.87" cy="50.87" r="49.97" fill="none"/>
    </g>
    <g id="Ellipse_2-2" data-name="Ellipse 2" transform="translate(18.587 18.587)" fill="none" stroke="#8065a8" stroke-width="1.8">
      <circle cx="46.957" cy="46.957" r="46.957" stroke="none"/>
      <circle cx="46.957" cy="46.957" r="46.057" fill="none"/>
    </g>
    <g id="Ellipse_5-2" data-name="Ellipse 5" transform="translate(22.5 22.5)" fill="none" stroke="#8065a8" stroke-width="1.8">
      <circle cx="43.044" cy="43.044" r="43.044" stroke="none"/>
      <circle cx="43.044" cy="43.044" r="42.144" fill="none"/>
    </g>
    <g id="Ellipse_6-2" data-name="Ellipse 6" transform="translate(26.414 26.413)" fill="none" stroke="#8065a8" stroke-width="1.8">
      <circle cx="39.131" cy="39.131" r="39.131" stroke="none"/>
      <circle cx="39.131" cy="39.131" r="38.231" fill="none"/>
    </g>
    <g id="Ellipse_7" data-name="Ellipse 7" transform="translate(30.327 30.327)" fill="none" stroke="#8065a8" stroke-width="1.8">
      <circle cx="35.218" cy="35.218" r="35.218" stroke="none"/>
      <circle cx="35.218" cy="35.218" r="34.318" fill="none"/>
    </g>
    <g id="Ellipse_8" data-name="Ellipse 8" transform="translate(33.261 33.261)" fill="none" stroke="#8065a8" stroke-width="1.8">
      <circle cx="32.283" cy="32.283" r="32.283" stroke="none"/>
      <circle cx="32.283" cy="32.283" r="31.383" fill="none"/>
    </g>
    <g id="Ellipse_9" data-name="Ellipse 9" transform="translate(37.174 37.174)" fill="none" stroke="#8065a8" stroke-width="1.8">
      <circle cx="28.37" cy="28.37" r="28.37" stroke="none"/>
      <circle cx="28.37" cy="28.37" r="27.47" fill="none"/>
    </g>
    <g id="Ellipse_10" data-name="Ellipse 10" transform="translate(41.088 41.088)" fill="none" stroke="#8065a8" stroke-width="1.8">
      <circle cx="24.457" cy="24.457" r="24.457" stroke="none"/>
      <circle cx="24.457" cy="24.457" r="23.557" fill="none"/>
    </g>
    <g id="Ellipse_11" data-name="Ellipse 11" transform="translate(45.001 45.001)" fill="none" stroke="#8065a8" stroke-width="1.8">
      <circle cx="20.544" cy="20.544" r="20.544" stroke="none"/>
      <circle cx="20.544" cy="20.544" r="19.644" fill="none"/>
    </g>
    <g id="Ellipse_12" data-name="Ellipse 12" transform="translate(48.914 48.914)" fill="none" stroke="#8065a8" stroke-width="1.8">
      <circle cx="16.631" cy="16.631" r="16.631" stroke="none"/>
      <circle cx="16.631" cy="16.631" r="15.731" fill="none"/>
    </g>
    <g id="Ellipse_13" data-name="Ellipse 13" transform="translate(52.827 52.827)" fill="none" stroke="#8065a8" stroke-width="1.8">
      <circle cx="12.718" cy="12.718" r="12.718" stroke="none"/>
      <circle cx="12.718" cy="12.718" r="11.818" fill="none"/>
    </g>
    <g id="Ellipse_14" data-name="Ellipse 14" transform="translate(55.762 55.762)" fill="none" stroke="#8065a8" stroke-width="1.8">
      <circle cx="9.783" cy="9.783" r="9.783" stroke="none"/>
      <circle cx="9.783" cy="9.783" r="8.883" fill="none"/>
    </g>
    <g id="Ellipse_15" data-name="Ellipse 15" transform="translate(59.675 59.675)" fill="none" stroke="#8065a8" stroke-width="1.8">
      <circle cx="5.87" cy="5.87" r="5.87" stroke="none"/>
      <circle cx="5.87" cy="5.87" r="4.97" fill="none"/>
    </g>
    <g id="Ellipse_16" data-name="Ellipse 16" transform="translate(63.588 63.588)" fill="none" stroke="#8065a8" stroke-width="1.8">
      <circle cx="1.957" cy="1.957" r="1.957" stroke="none"/>
      <circle cx="1.957" cy="1.957" r="1.057" fill="none"/>
    </g>
  </g>
</svg>
