<svg xmlns="http://www.w3.org/2000/svg" width="67.025" height="67.025" viewBox="0 0 67.025 67.025">
  <g id="dotted-square" transform="translate(0 67.025) rotate(-90)" opacity="0.8">
    <circle id="Ellipse_1" data-name="Ellipse 1" cx="2.873" cy="2.873" r="2.873" transform="translate(0 0)" fill="#8065a8"/>
    <circle id="Ellipse_1-2" data-name="Ellipse 1" cx="2.873" cy="2.873" r="2.873" transform="translate(15.32 0)" fill="#8065a8"/>
    <circle id="Ellipse_1-3" data-name="Ellipse 1" cx="2.873" cy="2.873" r="2.873" transform="translate(30.64 0)" fill="#8065a8"/>
    <circle id="Ellipse_1-4" data-name="Ellipse 1" cx="2.873" cy="2.873" r="2.873" transform="translate(45.96 0)" fill="#8065a8"/>
    <circle id="Ellipse_1-5" data-name="Ellipse 1" cx="2.873" cy="2.873" r="2.873" transform="translate(61.28 0)" fill="#8065a8"/>
    <circle id="Ellipse_1-6" data-name="Ellipse 1" cx="2.873" cy="2.873" r="2.873" transform="translate(0 15.32)" fill="#8065a8"/>
    <circle id="Ellipse_1-7" data-name="Ellipse 1" cx="2.873" cy="2.873" r="2.873" transform="translate(15.32 15.32)" fill="#8065a8"/>
    <circle id="Ellipse_1-8" data-name="Ellipse 1" cx="2.873" cy="2.873" r="2.873" transform="translate(30.64 15.32)" fill="#8065a8"/>
    <circle id="Ellipse_1-9" data-name="Ellipse 1" cx="2.873" cy="2.873" r="2.873" transform="translate(45.96 15.32)" fill="#8065a8"/>
    <circle id="Ellipse_1-10" data-name="Ellipse 1" cx="2.873" cy="2.873" r="2.873" transform="translate(61.28 15.32)" fill="#8065a8"/>
    <circle id="Ellipse_1-11" data-name="Ellipse 1" cx="2.873" cy="2.873" r="2.873" transform="translate(0 30.64)" fill="#8065a8"/>
    <circle id="Ellipse_1-12" data-name="Ellipse 1" cx="2.873" cy="2.873" r="2.873" transform="translate(15.32 30.64)" fill="#8065a8"/>
    <circle id="Ellipse_1-13" data-name="Ellipse 1" cx="2.873" cy="2.873" r="2.873" transform="translate(30.64 30.64)" fill="#8065a8"/>
    <circle id="Ellipse_1-14" data-name="Ellipse 1" cx="2.873" cy="2.873" r="2.873" transform="translate(45.96 30.64)" fill="#8065a8"/>
    <circle id="Ellipse_1-15" data-name="Ellipse 1" cx="2.873" cy="2.873" r="2.873" transform="translate(61.28 30.64)" fill="#8065a8"/>
    <circle id="Ellipse_1-16" data-name="Ellipse 1" cx="2.873" cy="2.873" r="2.873" transform="translate(0 45.96)" fill="#8065a8"/>
    <circle id="Ellipse_1-17" data-name="Ellipse 1" cx="2.873" cy="2.873" r="2.873" transform="translate(15.32 45.96)" fill="#8065a8"/>
    <circle id="Ellipse_1-18" data-name="Ellipse 1" cx="2.873" cy="2.873" r="2.873" transform="translate(30.64 45.96)" fill="#8065a8"/>
    <circle id="Ellipse_1-19" data-name="Ellipse 1" cx="2.873" cy="2.873" r="2.873" transform="translate(45.96 45.96)" fill="#8065a8"/>
    <circle id="Ellipse_1-20" data-name="Ellipse 1" cx="2.873" cy="2.873" r="2.873" transform="translate(61.28 45.96)" fill="#8065a8"/>
    <circle id="Ellipse_1-21" data-name="Ellipse 1" cx="2.873" cy="2.873" r="2.873" transform="translate(0 61.28)" fill="#8065a8"/>
    <circle id="Ellipse_1-22" data-name="Ellipse 1" cx="2.873" cy="2.873" r="2.873" transform="translate(15.32 61.28)" fill="#8065a8"/>
    <circle id="Ellipse_1-23" data-name="Ellipse 1" cx="2.873" cy="2.873" r="2.873" transform="translate(30.64 61.28)" fill="#8065a8"/>
    <circle id="Ellipse_1-24" data-name="Ellipse 1" cx="2.873" cy="2.873" r="2.873" transform="translate(45.96 61.28)" fill="#8065a8"/>
    <circle id="Ellipse_1-25" data-name="Ellipse 1" cx="2.873" cy="2.873" r="2.873" transform="translate(61.28 61.28)" fill="#8065a8"/>
  </g>
</svg>
