<svg xmlns="http://www.w3.org/2000/svg" width="34.875" height="34.004" viewBox="0 0 34.875 34.004">
  <path id="github-icon" d="M11.665,27.38c0,.141-.162.253-.366.253-.232.021-.394-.091-.394-.253,0-.141.162-.253.366-.253C11.482,27.105,11.665,27.218,11.665,27.38Zm-2.187-.316c-.049.141.091.3.3.345a.33.33,0,0,0,.436-.141c.042-.141-.091-.3-.3-.366A.361.361,0,0,0,9.478,27.063Zm3.108-.12c-.2.049-.345.183-.323.345.021.141.2.232.415.183s.345-.183.323-.323S12.79,26.923,12.586,26.944ZM17.212,0A16.86,16.86,0,0,0,0,17.156,17.628,17.628,0,0,0,11.918,33.975c.9.162,1.216-.394,1.216-.851,0-.436-.021-2.841-.021-4.317,0,0-4.922,1.055-5.955-2.1,0,0-.8-2.046-1.955-2.573,0,0-1.61-1.1.113-1.083A3.711,3.711,0,0,1,8.03,24.87a3.717,3.717,0,0,0,5.126,1.47,3.908,3.908,0,0,1,1.125-2.37c-3.93-.436-7.9-1.005-7.9-7.77a5.329,5.329,0,0,1,1.659-4.141,6.643,6.643,0,0,1,.183-4.774c1.47-.457,4.852,1.9,4.852,1.9a16.611,16.611,0,0,1,8.831,0s3.382-2.363,4.852-1.9a6.64,6.64,0,0,1,.183,4.774A5.466,5.466,0,0,1,28.758,16.2c0,6.785-4.141,7.327-8.072,7.77a4.158,4.158,0,0,1,1.2,3.263c0,2.37-.021,5.3-.021,5.878,0,.457.323,1.013,1.216.851a17.466,17.466,0,0,0,11.8-16.8C34.875,7.4,26.965,0,17.212,0ZM6.834,24.251c-.091.07-.07.232.049.366.113.112.274.162.366.07.091-.07.07-.232-.049-.366C7.087,24.209,6.926,24.159,6.834,24.251Zm-.759-.57c-.049.091.021.2.162.274a.209.209,0,0,0,.3-.049c.049-.091-.021-.2-.162-.274C6.237,23.59,6.124,23.611,6.075,23.681Zm2.278,2.5c-.113.091-.07.3.091.436.162.162.366.183.457.07.091-.091.049-.3-.091-.436C8.655,26.093,8.445,26.072,8.353,26.184Zm-.8-1.034c-.113.07-.113.253,0,.415s.3.232.394.162a.321.321,0,0,0,0-.436C7.847,25.13,7.664,25.059,7.552,25.151Z" fill="#707070"/>
</svg>
