<svg xmlns="http://www.w3.org/2000/svg" width="86.817" height="86.817" viewBox="0 0 86.817 86.817">
  <path id="js" d="M0,0H86.817V86.817H0ZM79.705,66.111c-.633-3.961-3.212-7.289-10.863-10.393-2.662-1.248-5.621-2.116-6.5-4.124a4.271,4.271,0,0,1-.166-2.55c.543-2.337,3.31-3.039,5.48-2.387a5.885,5.885,0,0,1,3.531,3.256c3.74-2.445,3.74-2.445,6.349-4.07a14.93,14.93,0,0,0-2.12-2.822c-2.279-2.55-5.314-3.853-10.252-3.74l-2.55.322a11.661,11.661,0,0,0-6.186,3.635c-4.124,4.67-2.934,12.809,2.058,16.173,4.938,3.69,12.158,4.5,13.08,7.976.868,4.232-3.147,5.589-7.112,5.1-2.934-.651-4.558-2.12-6.349-4.833l-6.62,3.8a14.629,14.629,0,0,0,2.93,4.012c6.294,6.352,22.03,6.027,24.855-3.632a12.243,12.243,0,0,0,.268-5.969l.166.242ZM47.211,39.9H39.079c0,7.01-.033,13.978-.033,21,0,4.457.228,8.548-.5,9.807-1.194,2.492-4.269,2.174-5.665,1.736a6.98,6.98,0,0,1-3-3.093,3.1,3.1,0,0,0-.459-.709l-6.6,4.07A12.8,12.8,0,0,0,27.608,78.2a15.92,15.92,0,0,0,11.6,1.465,10.16,10.16,0,0,0,6.551-5.1c1.845-3.364,1.454-7.488,1.436-12.1.043-7.43,0-14.864,0-22.352l.014-.2Z" fill="#8065a8"/>
</svg>
