<svg xmlns="http://www.w3.org/2000/svg" width="163.785" height="163.785" viewBox="0 0 163.785 163.785">
  <g id="oval" transform="translate(36.499) rotate(16)" opacity="0.8">
    <g id="Polygon_1" data-name="Polygon 1" transform="translate(0 0)" fill="none">
      <path d="M83.949,0l30.727,17.74,17.74,30.727V83.949l-17.74,30.727-30.727,17.74H48.468L17.74,114.676,0,83.949V48.468L17.74,17.74,48.468,0Z" stroke="none"/>
      <path d="M 82.87670135498047 4 L 49.53946685791016 4.000015258789063 L 20.66859436035156 20.66862487792969 L 3.999984741210938 49.53948974609375 L 3.999984741210938 82.876708984375 L 20.66861724853516 111.7475738525391 L 49.53946685791016 128.4161987304688 L 82.87669372558594 128.4161987304688 L 111.7475662231445 111.7475967407227 L 128.4161682128906 82.876708984375 L 128.4161682128906 49.53948974609375 L 111.7475891113281 20.66860198974609 L 82.87670135498047 4 M 83.948486328125 0 L 114.6757888793945 17.74040222167969 L 132.4161682128906 48.46769714355469 L 132.4161682128906 83.94850158691406 L 114.6757736206055 114.6757965087891 L 83.948486328125 132.4161987304688 L 48.46767425537109 132.4161987304688 L 17.74040985107422 114.67578125 L -1.52587890625e-05 83.94850158691406 L -1.52587890625e-05 48.46769714355469 L 17.74039459228516 17.74041748046875 L 48.46767425537109 1.52587890625e-05 L 83.948486328125 0 Z" stroke="none" fill="#707070"/>
    </g>
    <g id="Polygon_2" data-name="Polygon 2" transform="translate(18.51 18.51)" fill="none">
      <path d="M60.479,0,82.616,12.781,95.4,34.918V60.479L82.616,82.616,60.479,95.4H34.918L12.781,82.616,0,60.479V34.918L12.781,12.781,34.918,0Z" stroke="none"/>
      <path d="M 59.40721893310547 3.999992370605469 L 35.98937225341797 4.000007629394531 L 15.70892333984375 15.70893859863281 L 3.999992370605469 35.98940277099609 L 3.999992370605469 59.40721893310547 L 15.70892333984375 79.68768310546875 L 35.98938751220703 91.39661407470703 L 59.40721893310547 91.39661407470703 L 79.68768310546875 79.68768310546875 L 91.39661407470703 59.40721893310547 L 91.39661407470703 35.98938751220703 L 79.68768310546875 15.70892333984375 L 59.40721893310547 3.999992370605469 M 60.47902679443359 -7.62939453125e-06 L 82.61589050292969 12.78071594238281 L 95.39661407470703 34.91757965087891 L 95.39661407470703 60.47902679443359 L 82.61589050292969 82.61589050292969 L 60.47902679443359 95.39661407470703 L 34.91757965087891 95.39661407470703 L 12.78071594238281 82.61589050292969 L -7.62939453125e-06 60.47902679443359 L -7.62939453125e-06 34.91759490966797 L 12.78071594238281 12.78073120117188 L 34.91756439208984 7.62939453125e-06 L 60.47902679443359 -7.62939453125e-06 Z" stroke="none" fill="#707070"/>
    </g>
    <g id="Polygon_3" data-name="Polygon 3" transform="translate(37.02 37.02)" fill="none">
      <path d="M37.01,0,50.556,7.821l7.821,13.546V37.01L50.556,50.556,37.01,58.377H21.367L7.821,50.556,0,37.01V21.367L7.821,7.821,21.367,0Z" stroke="none"/>
      <path d="M 22.43926620483398 4.000003814697266 L 10.74924087524414 10.74924850463867 L 4.000003814697266 22.43927383422852 L 4.000003814697266 35.93776702880859 L 10.74924087524414 47.62779235839844 L 22.43926239013672 54.37702560424805 L 35.9377555847168 54.37702560424805 L 47.62779235839844 47.62778854370117 L 54.37702560424805 35.93776702880859 L 54.37702560424805 22.43927383422852 L 47.62778854370117 10.74923706054688 L 35.93776702880859 4.000003814697266 L 22.43926620483398 4.000003814697266 M 21.36746978759766 3.814697265625e-06 L 37.00955963134766 3.814697265625e-06 L 50.55599212646484 7.821037292480469 L 58.37702560424805 21.36748123168945 L 58.37702560424805 37.00955963134766 L 50.55599212646484 50.55599212646484 L 37.00954818725586 58.37702560424805 L 21.36746978759766 58.37702560424805 L 7.821037292480469 50.55599212646484 L 3.814697265625e-06 37.00955963134766 L 3.814697265625e-06 21.36748123168945 L 7.821037292480469 7.821048736572266 L 21.36746978759766 3.814697265625e-06 Z" stroke="none" fill="#707070"/>
    </g>
  </g>
</svg>
