<svg xmlns="http://www.w3.org/2000/svg" width="99.501" height="87.068" viewBox="0 0 99.501 87.068">
  <path id="react" d="M81.272,30.466q-1.574-.525-3.148-.991c.175-.719.33-1.438.486-2.157C81,15.736,79.426,6.427,74.121,3.356c-5.111-2.935-13.448.117-21.882,7.463-.836.719-1.652,1.477-2.429,2.235-.525-.505-1.069-1.011-1.613-1.5C39.353,3.706,30.492.4,25.186,3.492c-5.092,2.954-6.607,11.719-4.47,22.679.214,1.088.447,2.157.719,3.245-1.244.35-2.468.738-3.615,1.147C7.443,34.159,0,39.833,0,45.7c0,6.063,7.929,12.146,18.715,15.839.875.292,1.749.583,2.643.836-.292,1.166-.544,2.313-.777,3.5-2.041,10.786-.447,19.337,4.645,22.271,5.247,3.032,14.07-.078,22.66-7.6.68-.6,1.36-1.224,2.041-1.885.855.836,1.749,1.632,2.643,2.41,8.318,7.152,16.538,10.047,21.61,7.113,5.247-3.032,6.957-12.224,4.742-23.418q-.262-1.283-.583-2.624c.622-.175,1.224-.369,1.827-.564C91.378,57.868,99.5,51.863,99.5,45.7,99.5,39.814,91.844,34.1,81.272,30.466Zm-26.294-16.5c7.229-6.3,13.973-8.765,17.043-7,3.284,1.885,4.548,9.5,2.488,19.512-.136.661-.272,1.3-.447,1.943a99.487,99.487,0,0,0-13.079-2.06A98.189,98.189,0,0,0,52.7,16.046c.758-.719,1.5-1.4,2.274-2.079ZM32.493,55.789c.991,1.691,2,3.381,3.071,5.033a88,88,0,0,1-9.017-1.458,90.783,90.783,0,0,1,3.168-8.648c.894,1.71,1.807,3.4,2.779,5.072ZM26.6,32.41c2.8-.622,5.772-1.127,8.862-1.516-1.03,1.613-2.041,3.265-2.993,4.936-.952,1.652-1.885,3.343-2.76,5.053-1.224-2.9-2.254-5.733-3.109-8.473ZM31.93,45.8c1.283-2.682,2.682-5.305,4.159-7.89s3.071-5.092,4.742-7.56c2.915-.214,5.888-.33,8.92-.33s6.024.117,8.92.33q2.478,3.673,4.722,7.521t4.217,7.851q-1.953,4.023-4.2,7.929c-1.477,2.585-3.051,5.092-4.7,7.579-2.9.214-5.908.311-8.959.311s-6.005-.1-8.862-.272q-2.536-3.7-4.781-7.579c-1.5-2.585-2.876-5.208-4.178-7.89Zm35.1,9.95c.991-1.71,1.924-3.44,2.837-5.189a90.215,90.215,0,0,1,3.284,8.609,85.361,85.361,0,0,1-9.134,1.555C65.064,59.092,66.056,57.421,67.027,55.75Zm2.8-14.867c-.913-1.71-1.846-3.42-2.818-5.092q-1.428-2.478-2.973-4.9a89.43,89.43,0,0,1,8.92,1.555,86.007,86.007,0,0,1-3.129,8.434ZM49.789,19.02a85.336,85.336,0,0,1,5.752,6.957c-3.848-.175-7.715-.175-11.563,0C45.883,23.47,47.846,21.138,49.789,19.02ZM27.246,7.107c3.265-1.9,10.514.816,18.151,7.579.486.428.972.894,1.477,1.36a98.734,98.734,0,0,0-8.337,10.319,102.442,102.442,0,0,0-13.06,2.021c-.253-.991-.466-2-.68-3.012-1.827-9.406-.622-16.5,2.449-18.268ZM22.485,58.334c-.816-.233-1.613-.486-2.41-.758A39.636,39.636,0,0,1,7.832,51.513,8.72,8.72,0,0,1,4.178,45.7c0-3.556,6.141-8.1,15-11.194,1.108-.389,2.235-.738,3.362-1.069A103.338,103.338,0,0,0,27.3,45.8a106.23,106.23,0,0,0-4.82,12.535ZM45.145,77.38a35.57,35.57,0,0,1-10.961,6.86,8.6,8.6,0,0,1-6.86.253c-3.09-1.788-4.373-8.648-2.624-17.879.214-1.088.447-2.177.719-3.245a97.222,97.222,0,0,0,13.2,1.9,102.558,102.558,0,0,0,8.4,10.378C46.389,76.252,45.767,76.835,45.145,77.38Zm4.761-4.722c-1.982-2.138-3.965-4.509-5.888-7.054,1.866.078,3.79.117,5.733.117,2,0,3.965-.039,5.908-.136a83.809,83.809,0,0,1-5.752,7.074Zm25.4,5.83A8.637,8.637,0,0,1,72.1,84.57c-3.09,1.788-9.678-.544-16.791-6.646-.816-.7-1.632-1.458-2.468-2.235a96.135,96.135,0,0,0,8.2-10.417A95.8,95.8,0,0,0,74.3,63.232c.194.8.369,1.594.525,2.371a35.426,35.426,0,0,1,.486,12.885ZM78.843,57.6c-.544.175-1.088.35-1.652.505a98.724,98.724,0,0,0-4.956-12.4A98.231,98.231,0,0,0,77,33.479c1.011.292,1.982.6,2.915.913,9.056,3.109,15.411,7.735,15.411,11.272,0,3.809-6.782,8.726-16.48,11.932ZM49.751,54.681a8.9,8.9,0,1,0-8.9-8.9A8.9,8.9,0,0,0,49.751,54.681Z" transform="translate(0 -2.251)" fill="#8065a8"/>
</svg>
