<svg xmlns="http://www.w3.org/2000/svg" width="153.648" height="153.648" viewBox="0 0 153.648 153.648">
  <g id="squared-square" opacity="0.7">
    <g id="Rectangle_17" data-name="Rectangle 17" transform="translate(0 0)" fill="none" stroke="#8065a8" stroke-width="2">
      <rect width="12.292" height="12.292" stroke="none"/>
      <rect x="1" y="1" width="10.292" height="10.292" fill="none"/>
    </g>
    <g id="Rectangle_17-2" data-name="Rectangle 17" transform="translate(20.896 0)" fill="none" stroke="#8065a8" stroke-width="2">
      <rect width="12.292" height="12.292" stroke="none"/>
      <rect x="1" y="1" width="10.292" height="10.292" fill="none"/>
    </g>
    <g id="Rectangle_17-3" data-name="Rectangle 17" transform="translate(40.563 0)" fill="none" stroke="#8065a8" stroke-width="2">
      <rect width="12.292" height="12.292" stroke="none"/>
      <rect x="1" y="1" width="10.292" height="10.292" fill="none"/>
    </g>
    <g id="Rectangle_17-4" data-name="Rectangle 17" transform="translate(60.23 0)" fill="none" stroke="#8065a8" stroke-width="2">
      <rect width="12.292" height="12.292" stroke="none"/>
      <rect x="1" y="1" width="10.292" height="10.292" fill="none"/>
    </g>
    <g id="Rectangle_17-5" data-name="Rectangle 17" transform="translate(79.897 0)" fill="none" stroke="#8065a8" stroke-width="2">
      <rect width="13.521" height="12.292" stroke="none"/>
      <rect x="1" y="1" width="11.521" height="10.292" fill="none"/>
    </g>
    <g id="Rectangle_17-6" data-name="Rectangle 17" transform="translate(100.793 0)" fill="none" stroke="#8065a8" stroke-width="2">
      <rect width="12.292" height="12.292" stroke="none"/>
      <rect x="1" y="1" width="10.292" height="10.292" fill="none"/>
    </g>
    <g id="Rectangle_17-7" data-name="Rectangle 17" transform="translate(121.689 0)" fill="none" stroke="#8065a8" stroke-width="2">
      <rect width="12.292" height="12.292" stroke="none"/>
      <rect x="1" y="1" width="10.292" height="10.292" fill="none"/>
    </g>
    <g id="Rectangle_17-8" data-name="Rectangle 17" transform="translate(141.356 0)" fill="none" stroke="#8065a8" stroke-width="2">
      <rect width="12.292" height="12.292" stroke="none"/>
      <rect x="1" y="1" width="10.292" height="10.292" fill="none"/>
    </g>
    <g id="Rectangle_17-9" data-name="Rectangle 17" transform="translate(0 20.896)" fill="none" stroke="#8065a8" stroke-width="2">
      <rect width="12.292" height="12.292" stroke="none"/>
      <rect x="1" y="1" width="10.292" height="10.292" fill="none"/>
    </g>
    <g id="Rectangle_17-10" data-name="Rectangle 17" transform="translate(20.896 20.896)" fill="none" stroke="#8065a8" stroke-width="2">
      <rect width="12.292" height="12.292" stroke="none"/>
      <rect x="1" y="1" width="10.292" height="10.292" fill="none"/>
    </g>
    <g id="Rectangle_17-11" data-name="Rectangle 17" transform="translate(40.563 20.896)" fill="none" stroke="#8065a8" stroke-width="2">
      <rect width="12.292" height="12.292" stroke="none"/>
      <rect x="1" y="1" width="10.292" height="10.292" fill="none"/>
    </g>
    <g id="Rectangle_17-12" data-name="Rectangle 17" transform="translate(60.23 20.896)" fill="none" stroke="#8065a8" stroke-width="2">
      <rect width="12.292" height="12.292" stroke="none"/>
      <rect x="1" y="1" width="10.292" height="10.292" fill="none"/>
    </g>
    <g id="Rectangle_17-13" data-name="Rectangle 17" transform="translate(79.897 20.896)" fill="none" stroke="#8065a8" stroke-width="2">
      <rect width="13.521" height="12.292" stroke="none"/>
      <rect x="1" y="1" width="11.521" height="10.292" fill="none"/>
    </g>
    <g id="Rectangle_17-14" data-name="Rectangle 17" transform="translate(100.793 20.896)" fill="none" stroke="#8065a8" stroke-width="2">
      <rect width="12.292" height="12.292" stroke="none"/>
      <rect x="1" y="1" width="10.292" height="10.292" fill="none"/>
    </g>
    <g id="Rectangle_17-15" data-name="Rectangle 17" transform="translate(121.689 20.896)" fill="none" stroke="#8065a8" stroke-width="2">
      <rect width="12.292" height="12.292" stroke="none"/>
      <rect x="1" y="1" width="10.292" height="10.292" fill="none"/>
    </g>
    <g id="Rectangle_17-16" data-name="Rectangle 17" transform="translate(141.356 20.896)" fill="none" stroke="#8065a8" stroke-width="2">
      <rect width="12.292" height="12.292" stroke="none"/>
      <rect x="1" y="1" width="10.292" height="10.292" fill="none"/>
    </g>
    <g id="Rectangle_17-17" data-name="Rectangle 17" transform="translate(0 40.563)" fill="none" stroke="#8065a8" stroke-width="2">
      <rect width="12.292" height="12.292" stroke="none"/>
      <rect x="1" y="1" width="10.292" height="10.292" fill="none"/>
    </g>
    <g id="Rectangle_17-18" data-name="Rectangle 17" transform="translate(20.896 40.563)" fill="none" stroke="#8065a8" stroke-width="2">
      <rect width="12.292" height="12.292" stroke="none"/>
      <rect x="1" y="1" width="10.292" height="10.292" fill="none"/>
    </g>
    <g id="Rectangle_17-19" data-name="Rectangle 17" transform="translate(40.563 40.563)" fill="none" stroke="#8065a8" stroke-width="2">
      <rect width="12.292" height="12.292" stroke="none"/>
      <rect x="1" y="1" width="10.292" height="10.292" fill="none"/>
    </g>
    <g id="Rectangle_17-20" data-name="Rectangle 17" transform="translate(60.23 40.563)" fill="none" stroke="#8065a8" stroke-width="2">
      <rect width="12.292" height="12.292" stroke="none"/>
      <rect x="1" y="1" width="10.292" height="10.292" fill="none"/>
    </g>
    <g id="Rectangle_17-21" data-name="Rectangle 17" transform="translate(79.897 40.563)" fill="none" stroke="#8065a8" stroke-width="2">
      <rect width="13.521" height="12.292" stroke="none"/>
      <rect x="1" y="1" width="11.521" height="10.292" fill="none"/>
    </g>
    <g id="Rectangle_17-22" data-name="Rectangle 17" transform="translate(100.793 40.563)" fill="none" stroke="#8065a8" stroke-width="2">
      <rect width="12.292" height="12.292" stroke="none"/>
      <rect x="1" y="1" width="10.292" height="10.292" fill="none"/>
    </g>
    <g id="Rectangle_17-23" data-name="Rectangle 17" transform="translate(121.689 40.563)" fill="none" stroke="#8065a8" stroke-width="2">
      <rect width="12.292" height="12.292" stroke="none"/>
      <rect x="1" y="1" width="10.292" height="10.292" fill="none"/>
    </g>
    <g id="Rectangle_17-24" data-name="Rectangle 17" transform="translate(141.356 40.563)" fill="none" stroke="#8065a8" stroke-width="2">
      <rect width="12.292" height="12.292" stroke="none"/>
      <rect x="1" y="1" width="10.292" height="10.292" fill="none"/>
    </g>
    <g id="Rectangle_17-25" data-name="Rectangle 17" transform="translate(0 60.23)" fill="none" stroke="#8065a8" stroke-width="2">
      <rect width="12.292" height="12.292" stroke="none"/>
      <rect x="1" y="1" width="10.292" height="10.292" fill="none"/>
    </g>
    <g id="Rectangle_17-26" data-name="Rectangle 17" transform="translate(20.896 60.23)" fill="none" stroke="#8065a8" stroke-width="2">
      <rect width="12.292" height="12.292" stroke="none"/>
      <rect x="1" y="1" width="10.292" height="10.292" fill="none"/>
    </g>
    <g id="Rectangle_17-27" data-name="Rectangle 17" transform="translate(40.563 60.23)" fill="none" stroke="#8065a8" stroke-width="2">
      <rect width="12.292" height="12.292" stroke="none"/>
      <rect x="1" y="1" width="10.292" height="10.292" fill="none"/>
    </g>
    <g id="Rectangle_17-28" data-name="Rectangle 17" transform="translate(60.23 60.23)" fill="none" stroke="#8065a8" stroke-width="2">
      <rect width="12.292" height="12.292" stroke="none"/>
      <rect x="1" y="1" width="10.292" height="10.292" fill="none"/>
    </g>
    <g id="Rectangle_17-29" data-name="Rectangle 17" transform="translate(79.897 60.23)" fill="none" stroke="#8065a8" stroke-width="2">
      <rect width="13.521" height="12.292" stroke="none"/>
      <rect x="1" y="1" width="11.521" height="10.292" fill="none"/>
    </g>
    <g id="Rectangle_17-30" data-name="Rectangle 17" transform="translate(100.793 60.23)" fill="none" stroke="#8065a8" stroke-width="2">
      <rect width="12.292" height="12.292" stroke="none"/>
      <rect x="1" y="1" width="10.292" height="10.292" fill="none"/>
    </g>
    <g id="Rectangle_17-31" data-name="Rectangle 17" transform="translate(121.689 60.23)" fill="none" stroke="#8065a8" stroke-width="2">
      <rect width="12.292" height="12.292" stroke="none"/>
      <rect x="1" y="1" width="10.292" height="10.292" fill="none"/>
    </g>
    <g id="Rectangle_17-32" data-name="Rectangle 17" transform="translate(141.356 60.23)" fill="none" stroke="#8065a8" stroke-width="2">
      <rect width="12.292" height="12.292" stroke="none"/>
      <rect x="1" y="1" width="10.292" height="10.292" fill="none"/>
    </g>
    <g id="Rectangle_17-33" data-name="Rectangle 17" transform="translate(0 79.897)" fill="none" stroke="#8065a8" stroke-width="2">
      <rect width="12.292" height="13.521" stroke="none"/>
      <rect x="1" y="1" width="10.292" height="11.521" fill="none"/>
    </g>
    <g id="Rectangle_17-34" data-name="Rectangle 17" transform="translate(20.896 79.897)" fill="none" stroke="#8065a8" stroke-width="2">
      <rect width="12.292" height="13.521" stroke="none"/>
      <rect x="1" y="1" width="10.292" height="11.521" fill="none"/>
    </g>
    <g id="Rectangle_17-35" data-name="Rectangle 17" transform="translate(40.563 79.897)" fill="none" stroke="#8065a8" stroke-width="2">
      <rect width="12.292" height="13.521" stroke="none"/>
      <rect x="1" y="1" width="10.292" height="11.521" fill="none"/>
    </g>
    <g id="Rectangle_17-36" data-name="Rectangle 17" transform="translate(60.23 79.897)" fill="none" stroke="#8065a8" stroke-width="2">
      <rect width="12.292" height="13.521" stroke="none"/>
      <rect x="1" y="1" width="10.292" height="11.521" fill="none"/>
    </g>
    <g id="Rectangle_17-37" data-name="Rectangle 17" transform="translate(79.897 79.897)" fill="none" stroke="#8065a8" stroke-width="2">
      <rect width="13.521" height="13.521" stroke="none"/>
      <rect x="1" y="1" width="11.521" height="11.521" fill="none"/>
    </g>
    <g id="Rectangle_17-38" data-name="Rectangle 17" transform="translate(100.793 79.897)" fill="none" stroke="#8065a8" stroke-width="2">
      <rect width="12.292" height="13.521" stroke="none"/>
      <rect x="1" y="1" width="10.292" height="11.521" fill="none"/>
    </g>
    <g id="Rectangle_17-39" data-name="Rectangle 17" transform="translate(121.689 79.897)" fill="none" stroke="#8065a8" stroke-width="2">
      <rect width="12.292" height="13.521" stroke="none"/>
      <rect x="1" y="1" width="10.292" height="11.521" fill="none"/>
    </g>
    <g id="Rectangle_17-40" data-name="Rectangle 17" transform="translate(141.356 79.897)" fill="none" stroke="#8065a8" stroke-width="2">
      <rect width="12.292" height="13.521" stroke="none"/>
      <rect x="1" y="1" width="10.292" height="11.521" fill="none"/>
    </g>
    <g id="Rectangle_17-41" data-name="Rectangle 17" transform="translate(0 100.793)" fill="none" stroke="#8065a8" stroke-width="2">
      <rect width="12.292" height="12.292" stroke="none"/>
      <rect x="1" y="1" width="10.292" height="10.292" fill="none"/>
    </g>
    <g id="Rectangle_17-42" data-name="Rectangle 17" transform="translate(20.896 100.793)" fill="none" stroke="#8065a8" stroke-width="2">
      <rect width="12.292" height="12.292" stroke="none"/>
      <rect x="1" y="1" width="10.292" height="10.292" fill="none"/>
    </g>
    <g id="Rectangle_17-43" data-name="Rectangle 17" transform="translate(40.563 100.793)" fill="none" stroke="#8065a8" stroke-width="2">
      <rect width="12.292" height="12.292" stroke="none"/>
      <rect x="1" y="1" width="10.292" height="10.292" fill="none"/>
    </g>
    <g id="Rectangle_17-44" data-name="Rectangle 17" transform="translate(60.23 100.793)" fill="none" stroke="#8065a8" stroke-width="2">
      <rect width="12.292" height="12.292" stroke="none"/>
      <rect x="1" y="1" width="10.292" height="10.292" fill="none"/>
    </g>
    <g id="Rectangle_17-45" data-name="Rectangle 17" transform="translate(79.897 100.793)" fill="none" stroke="#8065a8" stroke-width="2">
      <rect width="13.521" height="12.292" stroke="none"/>
      <rect x="1" y="1" width="11.521" height="10.292" fill="none"/>
    </g>
    <g id="Rectangle_17-46" data-name="Rectangle 17" transform="translate(100.793 100.793)" fill="none" stroke="#8065a8" stroke-width="2">
      <rect width="12.292" height="12.292" stroke="none"/>
      <rect x="1" y="1" width="10.292" height="10.292" fill="none"/>
    </g>
    <g id="Rectangle_17-47" data-name="Rectangle 17" transform="translate(121.689 100.793)" fill="none" stroke="#8065a8" stroke-width="2">
      <rect width="12.292" height="12.292" stroke="none"/>
      <rect x="1" y="1" width="10.292" height="10.292" fill="none"/>
    </g>
    <g id="Rectangle_17-48" data-name="Rectangle 17" transform="translate(141.356 100.793)" fill="none" stroke="#8065a8" stroke-width="2">
      <rect width="12.292" height="12.292" stroke="none"/>
      <rect x="1" y="1" width="10.292" height="10.292" fill="none"/>
    </g>
    <g id="Rectangle_17-49" data-name="Rectangle 17" transform="translate(0 121.689)" fill="none" stroke="#8065a8" stroke-width="2">
      <rect width="12.292" height="12.292" stroke="none"/>
      <rect x="1" y="1" width="10.292" height="10.292" fill="none"/>
    </g>
    <g id="Rectangle_17-50" data-name="Rectangle 17" transform="translate(20.896 121.689)" fill="none" stroke="#8065a8" stroke-width="2">
      <rect width="12.292" height="12.292" stroke="none"/>
      <rect x="1" y="1" width="10.292" height="10.292" fill="none"/>
    </g>
    <g id="Rectangle_17-51" data-name="Rectangle 17" transform="translate(40.563 121.689)" fill="none" stroke="#8065a8" stroke-width="2">
      <rect width="12.292" height="12.292" stroke="none"/>
      <rect x="1" y="1" width="10.292" height="10.292" fill="none"/>
    </g>
    <g id="Rectangle_17-52" data-name="Rectangle 17" transform="translate(60.23 121.689)" fill="none" stroke="#8065a8" stroke-width="2">
      <rect width="12.292" height="12.292" stroke="none"/>
      <rect x="1" y="1" width="10.292" height="10.292" fill="none"/>
    </g>
    <g id="Rectangle_17-53" data-name="Rectangle 17" transform="translate(79.897 121.689)" fill="none" stroke="#8065a8" stroke-width="2">
      <rect width="13.521" height="12.292" stroke="none"/>
      <rect x="1" y="1" width="11.521" height="10.292" fill="none"/>
    </g>
    <g id="Rectangle_17-54" data-name="Rectangle 17" transform="translate(100.793 121.689)" fill="none" stroke="#8065a8" stroke-width="2">
      <rect width="12.292" height="12.292" stroke="none"/>
      <rect x="1" y="1" width="10.292" height="10.292" fill="none"/>
    </g>
    <g id="Rectangle_17-55" data-name="Rectangle 17" transform="translate(121.689 121.689)" fill="none" stroke="#8065a8" stroke-width="2">
      <rect width="12.292" height="12.292" stroke="none"/>
      <rect x="1" y="1" width="10.292" height="10.292" fill="none"/>
    </g>
    <g id="Rectangle_17-56" data-name="Rectangle 17" transform="translate(141.356 121.689)" fill="none" stroke="#8065a8" stroke-width="2">
      <rect width="12.292" height="12.292" stroke="none"/>
      <rect x="1" y="1" width="10.292" height="10.292" fill="none"/>
    </g>
    <g id="Rectangle_17-57" data-name="Rectangle 17" transform="translate(0 141.356)" fill="none" stroke="#8065a8" stroke-width="2">
      <rect width="12.292" height="12.292" stroke="none"/>
      <rect x="1" y="1" width="10.292" height="10.292" fill="none"/>
    </g>
    <g id="Rectangle_17-58" data-name="Rectangle 17" transform="translate(20.896 141.356)" fill="none" stroke="#8065a8" stroke-width="2">
      <rect width="12.292" height="12.292" stroke="none"/>
      <rect x="1" y="1" width="10.292" height="10.292" fill="none"/>
    </g>
    <g id="Rectangle_17-59" data-name="Rectangle 17" transform="translate(40.563 141.356)" fill="none" stroke="#8065a8" stroke-width="2">
      <rect width="12.292" height="12.292" stroke="none"/>
      <rect x="1" y="1" width="10.292" height="10.292" fill="none"/>
    </g>
    <g id="Rectangle_17-60" data-name="Rectangle 17" transform="translate(60.23 141.356)" fill="none" stroke="#8065a8" stroke-width="2">
      <rect width="12.292" height="12.292" stroke="none"/>
      <rect x="1" y="1" width="10.292" height="10.292" fill="none"/>
    </g>
    <g id="Rectangle_17-61" data-name="Rectangle 17" transform="translate(79.897 141.356)" fill="none" stroke="#8065a8" stroke-width="2">
      <rect width="13.521" height="12.292" stroke="none"/>
      <rect x="1" y="1" width="11.521" height="10.292" fill="none"/>
    </g>
    <g id="Rectangle_17-62" data-name="Rectangle 17" transform="translate(100.793 141.356)" fill="none" stroke="#8065a8" stroke-width="2">
      <rect width="12.292" height="12.292" stroke="none"/>
      <rect x="1" y="1" width="10.292" height="10.292" fill="none"/>
    </g>
    <g id="Rectangle_17-63" data-name="Rectangle 17" transform="translate(121.689 141.356)" fill="none" stroke="#8065a8" stroke-width="2">
      <rect width="12.292" height="12.292" stroke="none"/>
      <rect x="1" y="1" width="10.292" height="10.292" fill="none"/>
    </g>
    <g id="Rectangle_17-64" data-name="Rectangle 17" transform="translate(141.356 141.356)" fill="none" stroke="#8065a8" stroke-width="2">
      <rect width="12.292" height="12.292" stroke="none"/>
      <rect x="1" y="1" width="10.292" height="10.292" fill="none"/>
    </g>
  </g>
</svg>
