<svg xmlns="http://www.w3.org/2000/svg" width="34.875" height="34.875" viewBox="0 0 34.875 34.875">
  <path id="web" d="M17.438.563A17.438,17.438,0,1,0,34.875,18,17.434,17.434,0,0,0,17.438.563ZM31.5,18a14,14,0,0,1-.759,4.528H29.313a1.111,1.111,0,0,1-.8-.337L26.262,19.9a.838.838,0,0,1,.007-1.174l.879-.879v-.612a.8.8,0,0,0-.232-.562l-.661-.661a.8.8,0,0,0-.562-.232H24.567A.8.8,0,0,1,24,14.421l.661-.661a.8.8,0,0,1,.563-.232h2.25a.8.8,0,0,0,.795-.795v-.661a.8.8,0,0,0-.795-.795H24.9A1.128,1.128,0,0,0,23.773,12.4v.316a1.128,1.128,0,0,1-.766,1.069l-2.222.738a.559.559,0,0,0-.387.534v.155a.564.564,0,0,1-.562.563H18.71a.564.564,0,0,1-.562-.562.564.564,0,0,0-.562-.562h-.218a.573.573,0,0,0-.506.309L16.2,16.277a1.12,1.12,0,0,1-1.005.619H13.641a1.128,1.128,0,0,1-1.125-1.125V13.992a1.129,1.129,0,0,1,.33-.795l1.413-1.413a1.74,1.74,0,0,0,.506-1.23.566.566,0,0,1,.387-.534l2.812-.935a.818.818,0,0,0,.309-.19L20.159,7.01A.8.8,0,0,0,19.6,5.653H18.141L17.016,6.778v.563a.564.564,0,0,1-.562.563H15.328a.564.564,0,0,1-.562-.562V5.934a.566.566,0,0,1,.225-.45l2.032-1.526c.134-.007.267-.021.4-.021A14.08,14.08,0,0,1,31.5,18ZM9.148,10.484a.8.8,0,0,1,.232-.562l1.786-1.786a.8.8,0,0,1,1.357.563V9.823a.8.8,0,0,1-.232.563l-.661.661a.8.8,0,0,1-.562.232H9.942A.8.8,0,0,1,9.148,10.484Zm9,21.544v-.5A1.128,1.128,0,0,0,17.023,30.4H15.6a4.868,4.868,0,0,1-2.489-.83L11.552,28.4a3.194,3.194,0,0,1-1.28-2.559v-1.68a3.2,3.2,0,0,1,1.554-2.742l3.016-1.807a3.242,3.242,0,0,1,1.645-.457h2.194a3.207,3.207,0,0,1,2.081.766L23.8,22.528h1.287a2.246,2.246,0,0,1,1.589.661l1.216,1.216a1.288,1.288,0,0,0,.907.373h.942A14.037,14.037,0,0,1,18.148,32.027Z" transform="translate(0 -0.563)" fill="#ebebeb"/>
</svg>
